<svg width="80" height="48" viewBox="0 0 80 48" fill="none" xmlns="http://www.w3.org/2000/svg">
<mask id="path-1-outside-1_183_15" maskUnits="userSpaceOnUse" x="0.800003" y="0.799988" width="79" height="47" fill="black">
<rect fill="white" x="0.800003" y="0.799988" width="79" height="47"/>
<path d="M9.2512 15.7408C9.584 15.7408 9.9584 15.8517 10.3744 16.0736C10.8181 16.2955 11.04 16.6144 11.04 17.0304V31.1744C11.04 31.3963 11.1509 31.5765 11.3728 31.7152C11.6224 31.8539 11.8443 31.9232 12.0384 31.9232C12.1771 31.9232 12.3573 31.8816 12.5792 31.7984C12.8011 31.6875 12.912 31.5488 12.912 31.3824V19.984C12.912 19.9285 12.9536 19.7899 13.0368 19.568C13.1477 19.3184 13.2309 19.1659 13.2864 19.1104C13.4251 18.9163 13.5776 18.7915 13.744 18.736C13.9381 18.6528 14.1184 18.5973 14.2848 18.5696C14.4789 18.5141 14.6592 18.4587 14.8256 18.4032C15.0197 18.3477 15.1861 18.2507 15.3248 18.112C15.5467 17.8901 15.6853 17.6405 15.7408 17.3632C15.7963 17.0859 15.8656 16.8363 15.9488 16.6144C16.032 16.3648 16.1707 16.1568 16.3648 15.9904C16.5589 15.824 16.9195 15.7408 17.4464 15.7408C17.7792 15.7408 18.1536 15.8656 18.5696 16.1152C18.9856 16.3371 19.1936 16.6421 19.1936 17.0304V31.1744C19.1936 31.3963 19.3045 31.5765 19.5264 31.7152C19.776 31.8539 19.9979 31.9232 20.192 31.9232C20.3307 31.9232 20.4971 31.8816 20.6912 31.7984C20.9131 31.6875 21.024 31.5488 21.024 31.3824V17.28C21.024 16.8085 21.232 16.4341 21.648 16.1568C22.0917 15.8795 22.5077 15.7408 22.896 15.7408C23.2565 15.7408 23.6171 15.8656 23.9776 16.1152C24.3659 16.3371 24.56 16.6421 24.56 17.0304V34.336C24.56 34.6965 24.4213 34.96 24.144 35.1264C23.8667 35.2928 23.5616 35.4315 23.2288 35.5424C22.896 35.6256 22.5909 35.7227 22.3136 35.8336C22.0363 35.9445 21.8976 36.1248 21.8976 36.3744V39.744C21.8976 40.0768 21.6896 40.368 21.2736 40.6176C20.8576 40.8395 20.4971 40.9504 20.192 40.9504C19.8592 40.9504 19.5264 40.8811 19.1936 40.7424C18.8608 40.6037 18.6251 40.3403 18.4864 39.952C18.4587 39.8965 18.4171 39.744 18.3616 39.4944C18.3339 39.2171 18.3061 39.0507 18.2784 38.9952C18.1952 38.7179 18.0427 38.5376 17.8208 38.4544C17.5989 38.3435 17.3493 38.2603 17.072 38.2048C16.8224 38.1493 16.5728 38.0661 16.3232 37.9552C16.0736 37.8165 15.8933 37.5808 15.7824 37.248C15.7269 37.1093 15.6853 36.9568 15.6576 36.7904C15.6299 36.5963 15.5744 36.416 15.4912 36.2496C15.4357 36.0832 15.3525 35.9445 15.2416 35.8336C15.1307 35.6949 14.9643 35.6256 14.7424 35.6256C14.576 35.6256 14.368 35.7088 14.1184 35.8752C13.8688 36.0139 13.744 36.1803 13.744 36.3744V39.744C13.744 40.0768 13.536 40.368 13.12 40.6176C12.704 40.8395 12.3435 40.9504 12.0384 40.9504C11.4837 40.9504 11.0955 40.8672 10.8736 40.7008C10.6795 40.5067 10.5408 40.2848 10.4576 40.0352C10.3744 39.7856 10.2912 39.5221 10.208 39.2448C10.1525 38.9397 9.98614 38.6763 9.7088 38.4544C9.51467 38.288 9.32054 38.2048 9.1264 38.2048C8.96 38.1771 8.7936 38.1493 8.6272 38.1216C8.4608 38.0939 8.2944 38.0245 8.128 37.9136C7.9616 37.8027 7.7952 37.5808 7.6288 37.248C7.60107 37.1925 7.55947 37.1232 7.504 37.04C7.47627 36.9291 7.4624 36.8597 7.4624 36.832V33.5456C7.4624 33.3237 7.32374 33.1712 7.0464 33.088C6.76907 32.9771 6.464 32.8661 6.1312 32.7552C5.7984 32.6443 5.49334 32.4917 5.216 32.2976C4.93867 32.1035 4.8 31.7984 4.8 31.3824V19.984C4.8 19.568 4.8832 19.2768 5.0496 19.1104C5.24374 18.9163 5.4656 18.7776 5.7152 18.6944C5.99254 18.6112 6.256 18.5419 6.5056 18.4864C6.78294 18.4032 7.0048 18.2784 7.1712 18.112C7.39307 17.9179 7.53174 17.6821 7.5872 17.4048C7.64267 17.1275 7.712 16.864 7.7952 16.6144C7.8784 16.3648 8.01707 16.1568 8.2112 15.9904C8.40534 15.824 8.752 15.7408 9.2512 15.7408Z"/>
<path d="M25.4375 22.9792C25.4375 22.6187 25.5623 22.2304 25.8119 21.8144C26.0615 21.3984 26.4082 21.1904 26.8519 21.1904H30.2215C30.4156 21.1904 30.5543 21.0517 30.6375 20.7744C30.7207 20.4971 30.8178 20.192 30.9287 19.8592C31.0674 19.5264 31.2476 19.2213 31.4695 18.944C31.7191 18.6667 32.0935 18.528 32.5927 18.528C32.9255 18.528 33.286 18.6528 33.6743 18.9024C34.0903 19.1243 34.2983 19.4432 34.2983 19.8592V37.04C34.2983 37.2064 34.1874 37.4005 33.9655 37.6224C33.7436 37.8443 33.605 37.9829 33.5495 38.0384C33.3276 38.2048 33.078 38.3019 32.8007 38.3296C32.5511 38.3573 32.3015 38.4405 32.0519 38.5792C31.83 38.6901 31.6914 38.8843 31.6359 39.1616C31.6082 39.4112 31.5527 39.6747 31.4695 39.952C31.3863 40.2016 31.2476 40.4373 31.0535 40.6592C30.8594 40.8533 30.4988 40.9504 29.9719 40.9504C29.5836 40.9504 29.1676 40.8395 28.7239 40.6176C28.3079 40.368 28.0999 40.0075 28.0999 39.536V25.4752C28.0999 25.2256 27.9612 25.0592 27.6839 24.976C27.4066 24.8928 27.1015 24.7957 26.7687 24.6848C26.4359 24.5461 26.1308 24.3659 25.8535 24.144C25.5762 23.8944 25.4375 23.5061 25.4375 22.9792ZM25.4375 12.1632C25.4375 11.664 25.5207 11.3173 25.6871 11.1232C25.8812 10.9013 26.1031 10.7488 26.3527 10.6656C26.6023 10.5824 26.8519 10.5131 27.1015 10.4576C27.3788 10.4021 27.6146 10.2773 27.8087 10.0832C28.0028 9.88906 28.1276 9.66719 28.1831 9.41759C28.2386 9.14026 28.3079 8.87679 28.3911 8.62719C28.4743 8.37759 28.613 8.16959 28.8071 8.00319C29.029 7.80905 29.3895 7.71199 29.8887 7.71199C30.3879 7.71199 30.7346 7.79519 30.9287 7.96159C31.1506 8.10026 31.3031 8.28052 31.3863 8.50239C31.4695 8.72425 31.525 8.95999 31.5527 9.20959C31.5804 9.45919 31.6775 9.68106 31.8439 9.87519C32.0658 10.1525 32.3154 10.3328 32.5927 10.416C32.8978 10.4992 33.1751 10.5824 33.4247 10.6656C33.6743 10.7488 33.8823 10.9013 34.0487 11.1232C34.2428 11.3173 34.3399 11.6917 34.3399 12.2464C34.3399 12.6624 34.2706 12.9813 34.1319 13.2032C33.9932 13.3973 33.7991 13.5499 33.5495 13.6608C33.3276 13.744 33.078 13.8272 32.8007 13.9104C32.5511 13.9659 32.3015 14.0629 32.0519 14.2016C31.83 14.3403 31.6914 14.5483 31.6359 14.8256C31.6082 15.0752 31.5527 15.3387 31.4695 15.616C31.3863 15.8656 31.2476 16.1013 31.0535 16.3232C30.8594 16.5173 30.4988 16.6144 29.9719 16.6144C29.4172 16.6144 29.029 16.5312 28.8071 16.3648C28.613 16.1707 28.4743 15.9488 28.3911 15.6992C28.3079 15.4496 28.2247 15.1861 28.1415 14.9088C28.0583 14.6037 27.878 14.3403 27.6007 14.1184C27.4066 13.952 27.1847 13.8549 26.9351 13.8272C26.6855 13.7995 26.4498 13.744 26.2279 13.6608C26.006 13.5776 25.8119 13.4389 25.6455 13.2448C25.5068 13.0229 25.4375 12.6624 25.4375 12.1632Z"/>
<path d="M35.1875 36.4992C35.1875 36 35.2707 35.6533 35.4371 35.4592C35.6312 35.2373 35.8531 35.0848 36.1027 35.0016C36.3523 34.9184 36.6019 34.8491 36.8515 34.7936C37.1288 34.7381 37.3646 34.6133 37.5587 34.4192C37.7528 34.2251 37.8776 34.0032 37.9331 33.7536C37.9886 33.4763 38.0579 33.2128 38.1411 32.9632C38.2243 32.7136 38.363 32.5056 38.5571 32.3392C38.779 32.1451 39.1395 32.048 39.6387 32.048C40.1656 32.048 40.54 32.1867 40.7619 32.464C41.0115 32.7413 41.1918 33.0464 41.3027 33.3792C41.4136 33.6843 41.5107 33.9755 41.5939 34.2528C41.7048 34.5301 41.8851 34.6688 42.1347 34.6688H48.1251C48.2915 34.6688 48.4163 34.5717 48.4995 34.3776C48.6104 34.1557 48.6659 33.9755 48.6659 33.8368C48.6659 33.5317 48.5827 33.3099 48.4163 33.1712C48.2499 33.0325 48.0419 32.9216 47.7923 32.8384C47.5427 32.7552 47.2792 32.672 47.0019 32.5888C46.7523 32.5056 46.5443 32.3531 46.3779 32.1312C46.2947 32.048 46.2254 31.9093 46.1699 31.7152C46.1144 31.4933 46.0451 31.2715 45.9619 31.0496C45.9064 30.8 45.8232 30.592 45.7123 30.4256C45.6014 30.2315 45.4627 30.1344 45.2963 30.1344H41.9267C41.5939 30.1344 41.3443 30.0373 41.1779 29.8432C41.0115 29.6213 40.8728 29.3717 40.7619 29.0944C40.6787 28.8171 40.5816 28.5397 40.4707 28.2624C40.3875 27.9573 40.2627 27.7355 40.0963 27.5968C39.9299 27.4581 39.7219 27.3749 39.4723 27.3472C39.2227 27.2917 38.9731 27.2224 38.7235 27.1392C38.5016 27.056 38.3075 26.9451 38.1411 26.8064C37.9747 26.64 37.8915 26.3627 37.8915 25.9744V22.6048C37.8915 22.2165 37.9886 21.9392 38.1827 21.7728C38.3768 21.6064 38.5987 21.4816 38.8483 21.3984C39.1256 21.3152 39.3891 21.2459 39.6387 21.1904C39.916 21.1349 40.1379 21.024 40.3043 20.8576C40.443 20.7189 40.5262 20.5525 40.5539 20.3584C40.6094 20.1643 40.651 19.9701 40.6787 19.776C40.7342 19.5819 40.7896 19.4016 40.8451 19.2352C40.9283 19.0688 41.067 18.9163 41.2611 18.7776C41.3443 18.7221 41.483 18.6528 41.6771 18.5696C41.8712 18.4587 41.996 18.4032 42.0515 18.4032H45.4211C45.6152 18.4032 45.7539 18.2645 45.8371 17.9872C45.9203 17.7099 46.0035 17.4048 46.0867 17.072C46.1976 16.7392 46.3502 16.4341 46.5443 16.1568C46.7384 15.8795 47.0435 15.7408 47.4595 15.7408H50.8291C51.1896 15.7408 51.4531 15.824 51.6195 15.9904C51.8136 16.1568 51.9384 16.3509 51.9939 16.5728C52.0771 16.7947 52.1326 17.0304 52.1603 17.28C52.2158 17.5296 52.3128 17.7376 52.4515 17.904C52.6734 18.1813 52.923 18.3616 53.2003 18.4448C53.5054 18.528 53.7827 18.6112 54.0323 18.6944C54.3096 18.7776 54.5315 18.9301 54.6979 19.152C54.892 19.3461 54.9891 19.7205 54.9891 20.2752C54.9891 20.6912 54.9059 21.0101 54.7395 21.232C54.6008 21.4261 54.4206 21.5787 54.1987 21.6896C53.9768 21.7728 53.7272 21.856 53.4499 21.9392C53.2003 21.9947 52.9507 22.1056 52.7011 22.272C52.4792 22.3829 52.3406 22.5771 52.2851 22.8544C52.2574 23.104 52.2019 23.3675 52.1187 23.6448C52.0355 23.8944 51.883 24.1301 51.6611 24.352C51.467 24.5461 51.1064 24.6432 50.5795 24.6432C49.9971 24.6432 49.5811 24.5184 49.3315 24.2688C49.1096 23.9915 48.9432 23.6864 48.8323 23.3536C48.7214 23.0208 48.6104 22.7296 48.4995 22.48C48.4163 22.2027 48.2499 22.064 48.0003 22.064H44.9635C44.7416 22.064 44.5614 22.1749 44.4227 22.3968C44.284 22.5909 44.2147 22.7851 44.2147 22.9792C44.2147 23.2011 44.2702 23.3675 44.3811 23.4784C44.5198 23.5893 44.6723 23.6725 44.8387 23.728C45.0051 23.7835 45.1715 23.8389 45.3379 23.8944C45.532 23.9221 45.6984 23.9637 45.8371 24.0192C46.1144 24.1024 46.3224 24.2827 46.4611 24.56C46.5998 24.8373 46.7246 25.1285 46.8355 25.4336C46.9464 25.7109 47.0435 25.9744 47.1267 26.224C47.2376 26.4459 47.3902 26.5568 47.5843 26.5568H50.8291C50.94 26.5568 51.0787 26.6123 51.2451 26.7232C51.4115 26.8064 51.5224 26.8757 51.5779 26.9312C51.772 27.0976 51.9107 27.264 51.9939 27.4304C52.0771 27.5968 52.1187 27.7493 52.1187 27.888C52.1464 28.0267 52.1742 28.1653 52.2019 28.304C52.2296 28.4427 52.3128 28.5952 52.4515 28.7616C52.6179 28.9557 52.8398 29.1083 53.1171 29.2192C53.3944 29.3024 53.6579 29.3995 53.9075 29.5104C54.1848 29.5936 54.4206 29.7184 54.6147 29.8848C54.8366 30.0512 54.9475 30.3008 54.9475 30.6336V34.336C54.9475 34.4747 54.8366 34.6549 54.6147 34.8768C54.3928 35.0987 54.2542 35.2373 54.1987 35.2928C54.0878 35.376 53.9491 35.4453 53.7827 35.5008C53.644 35.5285 53.4915 35.5563 53.3251 35.584C53.1864 35.584 53.0478 35.6117 52.9091 35.6672C52.7704 35.7227 52.6595 35.8197 52.5763 35.9584C52.4931 36.0971 52.4099 36.3051 52.3267 36.5824C52.2435 36.832 52.1464 37.0816 52.0355 37.3312C51.9523 37.5808 51.8275 37.8027 51.6611 37.9968C51.4947 38.1909 51.2867 38.288 51.0371 38.288H47.6675C47.4179 38.288 47.2376 38.4267 47.1267 38.704C47.0158 38.9813 46.9048 39.2864 46.7939 39.6192C46.683 39.952 46.5443 40.2571 46.3779 40.5344C46.2392 40.8117 45.9896 40.9504 45.6291 40.9504H39.2227C38.8899 40.9504 38.6403 40.8533 38.4739 40.6592C38.3075 40.4373 38.1688 40.2016 38.0579 39.952C37.9747 39.6747 37.8776 39.3973 37.7667 39.12C37.6835 38.8427 37.5448 38.6208 37.3507 38.4544C37.1566 38.288 36.9347 38.1909 36.6851 38.1632C36.4355 38.1355 36.1998 38.08 35.9779 37.9968C35.756 37.9136 35.5619 37.7749 35.3955 37.5808C35.2568 37.3589 35.1875 36.9984 35.1875 36.4992Z"/>
<path d="M66.6826 17.4048C66.6826 17.0443 66.8074 16.6699 67.057 16.2816C67.3343 15.8933 67.681 15.6992 68.097 15.6992H71.4666C71.8549 15.6992 72.1322 15.7963 72.2986 15.9904C72.465 16.1845 72.5898 16.4203 72.673 16.6976C72.7839 16.9749 72.881 17.2523 72.9642 17.5296C73.0474 17.8069 73.1999 18.0288 73.4218 18.1952C73.5605 18.3061 73.7546 18.3893 74.0042 18.4448C74.2538 18.5003 74.4895 18.5696 74.7114 18.6528C74.961 18.736 75.169 18.8608 75.3354 19.0272C75.5018 19.1659 75.585 19.3877 75.585 19.6928V36.9984C75.585 37.3589 75.4463 37.6224 75.169 37.7888C74.8917 37.9552 74.5866 38.0939 74.2538 38.2048C73.921 38.288 73.6159 38.3851 73.3386 38.496C73.0613 38.6069 72.9226 38.7872 72.9226 39.0368V42.4064C72.9226 42.7392 72.7146 43.0165 72.2986 43.2384C71.8826 43.488 71.5221 43.6128 71.217 43.6128C70.8287 43.6128 70.4127 43.488 69.969 43.2384C69.553 43.0165 69.345 42.6699 69.345 42.1984V19.9424C69.345 19.6928 69.2063 19.5264 68.929 19.4432C68.6517 19.36 68.3466 19.2629 68.0138 19.152C67.681 19.0133 67.3759 18.8192 67.0986 18.5696C66.8213 18.32 66.6826 17.9317 66.6826 17.4048ZM55.825 9.29279C55.825 8.90452 55.9498 8.51626 56.1994 8.12799C56.449 7.71199 56.7957 7.50399 57.2394 7.50399H60.609C60.8031 7.50399 60.9418 7.36532 61.025 7.08799C61.1082 6.81066 61.2053 6.50559 61.3162 6.17279C61.4549 5.81226 61.6351 5.49332 61.857 5.21599C62.1066 4.93865 62.481 4.79999 62.9802 4.79999C63.313 4.79999 63.6874 4.92479 64.1034 5.17439C64.5471 5.39626 64.769 5.71519 64.769 6.13119V17.6544C64.769 17.904 64.9077 18.0704 65.185 18.1536C65.4623 18.2368 65.7674 18.3339 66.1002 18.4448C66.4607 18.5557 66.7797 18.736 67.057 18.9856C67.3343 19.2352 67.473 19.6512 67.473 20.2336C67.473 20.7328 67.3343 21.0933 67.057 21.3152C66.7797 21.5371 66.4607 21.7173 66.1002 21.856C65.7674 21.9669 65.4623 22.0779 65.185 22.1888C64.9077 22.272 64.769 22.4523 64.769 22.7296V36.9984C64.769 36.9984 64.7413 37.0539 64.6858 37.1648C64.6303 37.2757 64.5749 37.3589 64.5194 37.4144C64.1866 37.8027 63.8538 38.0245 63.521 38.08C63.2159 38.1355 62.8554 38.2741 62.4394 38.496C62.2453 38.6347 62.1205 38.8427 62.065 39.12C62.0373 39.3696 61.9818 39.6331 61.8986 39.9104C61.8154 40.16 61.6629 40.3957 61.441 40.6176C61.2469 40.8117 60.8863 40.9088 60.3594 40.9088C59.9711 40.9088 59.5551 40.7979 59.1114 40.576C58.6954 40.3264 58.4874 39.9659 58.4874 39.4944V11.7888C58.4874 11.5392 58.3487 11.3728 58.0714 11.2896C57.7941 11.2064 57.489 11.1093 57.1562 10.9984C56.8234 10.8597 56.5183 10.6795 56.241 10.4576C55.9637 10.208 55.825 9.81972 55.825 9.29279Z"/>
</mask>
<path d="M9.2512 15.7408C9.584 15.7408 9.9584 15.8517 10.3744 16.0736C10.8181 16.2955 11.04 16.6144 11.04 17.0304V31.1744C11.04 31.3963 11.1509 31.5765 11.3728 31.7152C11.6224 31.8539 11.8443 31.9232 12.0384 31.9232C12.1771 31.9232 12.3573 31.8816 12.5792 31.7984C12.8011 31.6875 12.912 31.5488 12.912 31.3824V19.984C12.912 19.9285 12.9536 19.7899 13.0368 19.568C13.1477 19.3184 13.2309 19.1659 13.2864 19.1104C13.4251 18.9163 13.5776 18.7915 13.744 18.736C13.9381 18.6528 14.1184 18.5973 14.2848 18.5696C14.4789 18.5141 14.6592 18.4587 14.8256 18.4032C15.0197 18.3477 15.1861 18.2507 15.3248 18.112C15.5467 17.8901 15.6853 17.6405 15.7408 17.3632C15.7963 17.0859 15.8656 16.8363 15.9488 16.6144C16.032 16.3648 16.1707 16.1568 16.3648 15.9904C16.5589 15.824 16.9195 15.7408 17.4464 15.7408C17.7792 15.7408 18.1536 15.8656 18.5696 16.1152C18.9856 16.3371 19.1936 16.6421 19.1936 17.0304V31.1744C19.1936 31.3963 19.3045 31.5765 19.5264 31.7152C19.776 31.8539 19.9979 31.9232 20.192 31.9232C20.3307 31.9232 20.4971 31.8816 20.6912 31.7984C20.9131 31.6875 21.024 31.5488 21.024 31.3824V17.28C21.024 16.8085 21.232 16.4341 21.648 16.1568C22.0917 15.8795 22.5077 15.7408 22.896 15.7408C23.2565 15.7408 23.6171 15.8656 23.9776 16.1152C24.3659 16.3371 24.56 16.6421 24.56 17.0304V34.336C24.56 34.6965 24.4213 34.96 24.144 35.1264C23.8667 35.2928 23.5616 35.4315 23.2288 35.5424C22.896 35.6256 22.5909 35.7227 22.3136 35.8336C22.0363 35.9445 21.8976 36.1248 21.8976 36.3744V39.744C21.8976 40.0768 21.6896 40.368 21.2736 40.6176C20.8576 40.8395 20.4971 40.9504 20.192 40.9504C19.8592 40.9504 19.5264 40.8811 19.1936 40.7424C18.8608 40.6037 18.6251 40.3403 18.4864 39.952C18.4587 39.8965 18.4171 39.744 18.3616 39.4944C18.3339 39.2171 18.3061 39.0507 18.2784 38.9952C18.1952 38.7179 18.0427 38.5376 17.8208 38.4544C17.5989 38.3435 17.3493 38.2603 17.072 38.2048C16.8224 38.1493 16.5728 38.0661 16.3232 37.9552C16.0736 37.8165 15.8933 37.5808 15.7824 37.248C15.7269 37.1093 15.6853 36.9568 15.6576 36.7904C15.6299 36.5963 15.5744 36.416 15.4912 36.2496C15.4357 36.0832 15.3525 35.9445 15.2416 35.8336C15.1307 35.6949 14.9643 35.6256 14.7424 35.6256C14.576 35.6256 14.368 35.7088 14.1184 35.8752C13.8688 36.0139 13.744 36.1803 13.744 36.3744V39.744C13.744 40.0768 13.536 40.368 13.12 40.6176C12.704 40.8395 12.3435 40.9504 12.0384 40.9504C11.4837 40.9504 11.0955 40.8672 10.8736 40.7008C10.6795 40.5067 10.5408 40.2848 10.4576 40.0352C10.3744 39.7856 10.2912 39.5221 10.208 39.2448C10.1525 38.9397 9.98614 38.6763 9.7088 38.4544C9.51467 38.288 9.32054 38.2048 9.1264 38.2048C8.96 38.1771 8.7936 38.1493 8.6272 38.1216C8.4608 38.0939 8.2944 38.0245 8.128 37.9136C7.9616 37.8027 7.7952 37.5808 7.6288 37.248C7.60107 37.1925 7.55947 37.1232 7.504 37.04C7.47627 36.9291 7.4624 36.8597 7.4624 36.832V33.5456C7.4624 33.3237 7.32374 33.1712 7.0464 33.088C6.76907 32.9771 6.464 32.8661 6.1312 32.7552C5.7984 32.6443 5.49334 32.4917 5.216 32.2976C4.93867 32.1035 4.8 31.7984 4.8 31.3824V19.984C4.8 19.568 4.8832 19.2768 5.0496 19.1104C5.24374 18.9163 5.4656 18.7776 5.7152 18.6944C5.99254 18.6112 6.256 18.5419 6.5056 18.4864C6.78294 18.4032 7.0048 18.2784 7.1712 18.112C7.39307 17.9179 7.53174 17.6821 7.5872 17.4048C7.64267 17.1275 7.712 16.864 7.7952 16.6144C7.8784 16.3648 8.01707 16.1568 8.2112 15.9904C8.40534 15.824 8.752 15.7408 9.2512 15.7408Z" fill="black"/>
<path d="M25.4375 22.9792C25.4375 22.6187 25.5623 22.2304 25.8119 21.8144C26.0615 21.3984 26.4082 21.1904 26.8519 21.1904H30.2215C30.4156 21.1904 30.5543 21.0517 30.6375 20.7744C30.7207 20.4971 30.8178 20.192 30.9287 19.8592C31.0674 19.5264 31.2476 19.2213 31.4695 18.944C31.7191 18.6667 32.0935 18.528 32.5927 18.528C32.9255 18.528 33.286 18.6528 33.6743 18.9024C34.0903 19.1243 34.2983 19.4432 34.2983 19.8592V37.04C34.2983 37.2064 34.1874 37.4005 33.9655 37.6224C33.7436 37.8443 33.605 37.9829 33.5495 38.0384C33.3276 38.2048 33.078 38.3019 32.8007 38.3296C32.5511 38.3573 32.3015 38.4405 32.0519 38.5792C31.83 38.6901 31.6914 38.8843 31.6359 39.1616C31.6082 39.4112 31.5527 39.6747 31.4695 39.952C31.3863 40.2016 31.2476 40.4373 31.0535 40.6592C30.8594 40.8533 30.4988 40.9504 29.9719 40.9504C29.5836 40.9504 29.1676 40.8395 28.7239 40.6176C28.3079 40.368 28.0999 40.0075 28.0999 39.536V25.4752C28.0999 25.2256 27.9612 25.0592 27.6839 24.976C27.4066 24.8928 27.1015 24.7957 26.7687 24.6848C26.4359 24.5461 26.1308 24.3659 25.8535 24.144C25.5762 23.8944 25.4375 23.5061 25.4375 22.9792ZM25.4375 12.1632C25.4375 11.664 25.5207 11.3173 25.6871 11.1232C25.8812 10.9013 26.1031 10.7488 26.3527 10.6656C26.6023 10.5824 26.8519 10.5131 27.1015 10.4576C27.3788 10.4021 27.6146 10.2773 27.8087 10.0832C28.0028 9.88906 28.1276 9.66719 28.1831 9.41759C28.2386 9.14026 28.3079 8.87679 28.3911 8.62719C28.4743 8.37759 28.613 8.16959 28.8071 8.00319C29.029 7.80905 29.3895 7.71199 29.8887 7.71199C30.3879 7.71199 30.7346 7.79519 30.9287 7.96159C31.1506 8.10026 31.3031 8.28052 31.3863 8.50239C31.4695 8.72425 31.525 8.95999 31.5527 9.20959C31.5804 9.45919 31.6775 9.68106 31.8439 9.87519C32.0658 10.1525 32.3154 10.3328 32.5927 10.416C32.8978 10.4992 33.1751 10.5824 33.4247 10.6656C33.6743 10.7488 33.8823 10.9013 34.0487 11.1232C34.2428 11.3173 34.3399 11.6917 34.3399 12.2464C34.3399 12.6624 34.2706 12.9813 34.1319 13.2032C33.9932 13.3973 33.7991 13.5499 33.5495 13.6608C33.3276 13.744 33.078 13.8272 32.8007 13.9104C32.5511 13.9659 32.3015 14.0629 32.0519 14.2016C31.83 14.3403 31.6914 14.5483 31.6359 14.8256C31.6082 15.0752 31.5527 15.3387 31.4695 15.616C31.3863 15.8656 31.2476 16.1013 31.0535 16.3232C30.8594 16.5173 30.4988 16.6144 29.9719 16.6144C29.4172 16.6144 29.029 16.5312 28.8071 16.3648C28.613 16.1707 28.4743 15.9488 28.3911 15.6992C28.3079 15.4496 28.2247 15.1861 28.1415 14.9088C28.0583 14.6037 27.878 14.3403 27.6007 14.1184C27.4066 13.952 27.1847 13.8549 26.9351 13.8272C26.6855 13.7995 26.4498 13.744 26.2279 13.6608C26.006 13.5776 25.8119 13.4389 25.6455 13.2448C25.5068 13.0229 25.4375 12.6624 25.4375 12.1632Z" fill="black"/>
<path d="M35.1875 36.4992C35.1875 36 35.2707 35.6533 35.4371 35.4592C35.6312 35.2373 35.8531 35.0848 36.1027 35.0016C36.3523 34.9184 36.6019 34.8491 36.8515 34.7936C37.1288 34.7381 37.3646 34.6133 37.5587 34.4192C37.7528 34.2251 37.8776 34.0032 37.9331 33.7536C37.9886 33.4763 38.0579 33.2128 38.1411 32.9632C38.2243 32.7136 38.363 32.5056 38.5571 32.3392C38.779 32.1451 39.1395 32.048 39.6387 32.048C40.1656 32.048 40.54 32.1867 40.7619 32.464C41.0115 32.7413 41.1918 33.0464 41.3027 33.3792C41.4136 33.6843 41.5107 33.9755 41.5939 34.2528C41.7048 34.5301 41.8851 34.6688 42.1347 34.6688H48.1251C48.2915 34.6688 48.4163 34.5717 48.4995 34.3776C48.6104 34.1557 48.6659 33.9755 48.6659 33.8368C48.6659 33.5317 48.5827 33.3099 48.4163 33.1712C48.2499 33.0325 48.0419 32.9216 47.7923 32.8384C47.5427 32.7552 47.2792 32.672 47.0019 32.5888C46.7523 32.5056 46.5443 32.3531 46.3779 32.1312C46.2947 32.048 46.2254 31.9093 46.1699 31.7152C46.1144 31.4933 46.0451 31.2715 45.9619 31.0496C45.9064 30.8 45.8232 30.592 45.7123 30.4256C45.6014 30.2315 45.4627 30.1344 45.2963 30.1344H41.9267C41.5939 30.1344 41.3443 30.0373 41.1779 29.8432C41.0115 29.6213 40.8728 29.3717 40.7619 29.0944C40.6787 28.8171 40.5816 28.5397 40.4707 28.2624C40.3875 27.9573 40.2627 27.7355 40.0963 27.5968C39.9299 27.4581 39.7219 27.3749 39.4723 27.3472C39.2227 27.2917 38.9731 27.2224 38.7235 27.1392C38.5016 27.056 38.3075 26.9451 38.1411 26.8064C37.9747 26.64 37.8915 26.3627 37.8915 25.9744V22.6048C37.8915 22.2165 37.9886 21.9392 38.1827 21.7728C38.3768 21.6064 38.5987 21.4816 38.8483 21.3984C39.1256 21.3152 39.3891 21.2459 39.6387 21.1904C39.916 21.1349 40.1379 21.024 40.3043 20.8576C40.443 20.7189 40.5262 20.5525 40.5539 20.3584C40.6094 20.1643 40.651 19.9701 40.6787 19.776C40.7342 19.5819 40.7896 19.4016 40.8451 19.2352C40.9283 19.0688 41.067 18.9163 41.2611 18.7776C41.3443 18.7221 41.483 18.6528 41.6771 18.5696C41.8712 18.4587 41.996 18.4032 42.0515 18.4032H45.4211C45.6152 18.4032 45.7539 18.2645 45.8371 17.9872C45.9203 17.7099 46.0035 17.4048 46.0867 17.072C46.1976 16.7392 46.3502 16.4341 46.5443 16.1568C46.7384 15.8795 47.0435 15.7408 47.4595 15.7408H50.8291C51.1896 15.7408 51.4531 15.824 51.6195 15.9904C51.8136 16.1568 51.9384 16.3509 51.9939 16.5728C52.0771 16.7947 52.1326 17.0304 52.1603 17.28C52.2158 17.5296 52.3128 17.7376 52.4515 17.904C52.6734 18.1813 52.923 18.3616 53.2003 18.4448C53.5054 18.528 53.7827 18.6112 54.0323 18.6944C54.3096 18.7776 54.5315 18.9301 54.6979 19.152C54.892 19.3461 54.9891 19.7205 54.9891 20.2752C54.9891 20.6912 54.9059 21.0101 54.7395 21.232C54.6008 21.4261 54.4206 21.5787 54.1987 21.6896C53.9768 21.7728 53.7272 21.856 53.4499 21.9392C53.2003 21.9947 52.9507 22.1056 52.7011 22.272C52.4792 22.3829 52.3406 22.5771 52.2851 22.8544C52.2574 23.104 52.2019 23.3675 52.1187 23.6448C52.0355 23.8944 51.883 24.1301 51.6611 24.352C51.467 24.5461 51.1064 24.6432 50.5795 24.6432C49.9971 24.6432 49.5811 24.5184 49.3315 24.2688C49.1096 23.9915 48.9432 23.6864 48.8323 23.3536C48.7214 23.0208 48.6104 22.7296 48.4995 22.48C48.4163 22.2027 48.2499 22.064 48.0003 22.064H44.9635C44.7416 22.064 44.5614 22.1749 44.4227 22.3968C44.284 22.5909 44.2147 22.7851 44.2147 22.9792C44.2147 23.2011 44.2702 23.3675 44.3811 23.4784C44.5198 23.5893 44.6723 23.6725 44.8387 23.728C45.0051 23.7835 45.1715 23.8389 45.3379 23.8944C45.532 23.9221 45.6984 23.9637 45.8371 24.0192C46.1144 24.1024 46.3224 24.2827 46.4611 24.56C46.5998 24.8373 46.7246 25.1285 46.8355 25.4336C46.9464 25.7109 47.0435 25.9744 47.1267 26.224C47.2376 26.4459 47.3902 26.5568 47.5843 26.5568H50.8291C50.94 26.5568 51.0787 26.6123 51.2451 26.7232C51.4115 26.8064 51.5224 26.8757 51.5779 26.9312C51.772 27.0976 51.9107 27.264 51.9939 27.4304C52.0771 27.5968 52.1187 27.7493 52.1187 27.888C52.1464 28.0267 52.1742 28.1653 52.2019 28.304C52.2296 28.4427 52.3128 28.5952 52.4515 28.7616C52.6179 28.9557 52.8398 29.1083 53.1171 29.2192C53.3944 29.3024 53.6579 29.3995 53.9075 29.5104C54.1848 29.5936 54.4206 29.7184 54.6147 29.8848C54.8366 30.0512 54.9475 30.3008 54.9475 30.6336V34.336C54.9475 34.4747 54.8366 34.6549 54.6147 34.8768C54.3928 35.0987 54.2542 35.2373 54.1987 35.2928C54.0878 35.376 53.9491 35.4453 53.7827 35.5008C53.644 35.5285 53.4915 35.5563 53.3251 35.584C53.1864 35.584 53.0478 35.6117 52.9091 35.6672C52.7704 35.7227 52.6595 35.8197 52.5763 35.9584C52.4931 36.0971 52.4099 36.3051 52.3267 36.5824C52.2435 36.832 52.1464 37.0816 52.0355 37.3312C51.9523 37.5808 51.8275 37.8027 51.6611 37.9968C51.4947 38.1909 51.2867 38.288 51.0371 38.288H47.6675C47.4179 38.288 47.2376 38.4267 47.1267 38.704C47.0158 38.9813 46.9048 39.2864 46.7939 39.6192C46.683 39.952 46.5443 40.2571 46.3779 40.5344C46.2392 40.8117 45.9896 40.9504 45.6291 40.9504H39.2227C38.8899 40.9504 38.6403 40.8533 38.4739 40.6592C38.3075 40.4373 38.1688 40.2016 38.0579 39.952C37.9747 39.6747 37.8776 39.3973 37.7667 39.12C37.6835 38.8427 37.5448 38.6208 37.3507 38.4544C37.1566 38.288 36.9347 38.1909 36.6851 38.1632C36.4355 38.1355 36.1998 38.08 35.9779 37.9968C35.756 37.9136 35.5619 37.7749 35.3955 37.5808C35.2568 37.3589 35.1875 36.9984 35.1875 36.4992Z" fill="black"/>
<path d="M66.6826 17.4048C66.6826 17.0443 66.8074 16.6699 67.057 16.2816C67.3343 15.8933 67.681 15.6992 68.097 15.6992H71.4666C71.8549 15.6992 72.1322 15.7963 72.2986 15.9904C72.465 16.1845 72.5898 16.4203 72.673 16.6976C72.7839 16.9749 72.881 17.2523 72.9642 17.5296C73.0474 17.8069 73.1999 18.0288 73.4218 18.1952C73.5605 18.3061 73.7546 18.3893 74.0042 18.4448C74.2538 18.5003 74.4895 18.5696 74.7114 18.6528C74.961 18.736 75.169 18.8608 75.3354 19.0272C75.5018 19.1659 75.585 19.3877 75.585 19.6928V36.9984C75.585 37.3589 75.4463 37.6224 75.169 37.7888C74.8917 37.9552 74.5866 38.0939 74.2538 38.2048C73.921 38.288 73.6159 38.3851 73.3386 38.496C73.0613 38.6069 72.9226 38.7872 72.9226 39.0368V42.4064C72.9226 42.7392 72.7146 43.0165 72.2986 43.2384C71.8826 43.488 71.5221 43.6128 71.217 43.6128C70.8287 43.6128 70.4127 43.488 69.969 43.2384C69.553 43.0165 69.345 42.6699 69.345 42.1984V19.9424C69.345 19.6928 69.2063 19.5264 68.929 19.4432C68.6517 19.36 68.3466 19.2629 68.0138 19.152C67.681 19.0133 67.3759 18.8192 67.0986 18.5696C66.8213 18.32 66.6826 17.9317 66.6826 17.4048ZM55.825 9.29279C55.825 8.90452 55.9498 8.51626 56.1994 8.12799C56.449 7.71199 56.7957 7.50399 57.2394 7.50399H60.609C60.8031 7.50399 60.9418 7.36532 61.025 7.08799C61.1082 6.81066 61.2053 6.50559 61.3162 6.17279C61.4549 5.81226 61.6351 5.49332 61.857 5.21599C62.1066 4.93865 62.481 4.79999 62.9802 4.79999C63.313 4.79999 63.6874 4.92479 64.1034 5.17439C64.5471 5.39626 64.769 5.71519 64.769 6.13119V17.6544C64.769 17.904 64.9077 18.0704 65.185 18.1536C65.4623 18.2368 65.7674 18.3339 66.1002 18.4448C66.4607 18.5557 66.7797 18.736 67.057 18.9856C67.3343 19.2352 67.473 19.6512 67.473 20.2336C67.473 20.7328 67.3343 21.0933 67.057 21.3152C66.7797 21.5371 66.4607 21.7173 66.1002 21.856C65.7674 21.9669 65.4623 22.0779 65.185 22.1888C64.9077 22.272 64.769 22.4523 64.769 22.7296V36.9984C64.769 36.9984 64.7413 37.0539 64.6858 37.1648C64.6303 37.2757 64.5749 37.3589 64.5194 37.4144C64.1866 37.8027 63.8538 38.0245 63.521 38.08C63.2159 38.1355 62.8554 38.2741 62.4394 38.496C62.2453 38.6347 62.1205 38.8427 62.065 39.12C62.0373 39.3696 61.9818 39.6331 61.8986 39.9104C61.8154 40.16 61.6629 40.3957 61.441 40.6176C61.2469 40.8117 60.8863 40.9088 60.3594 40.9088C59.9711 40.9088 59.5551 40.7979 59.1114 40.576C58.6954 40.3264 58.4874 39.9659 58.4874 39.4944V11.7888C58.4874 11.5392 58.3487 11.3728 58.0714 11.2896C57.7941 11.2064 57.489 11.1093 57.1562 10.9984C56.8234 10.8597 56.5183 10.6795 56.241 10.4576C55.9637 10.208 55.825 9.81972 55.825 9.29279Z" fill="black"/>
<path d="M9.2512 15.7408C9.584 15.7408 9.9584 15.8517 10.3744 16.0736C10.8181 16.2955 11.04 16.6144 11.04 17.0304V31.1744C11.04 31.3963 11.1509 31.5765 11.3728 31.7152C11.6224 31.8539 11.8443 31.9232 12.0384 31.9232C12.1771 31.9232 12.3573 31.8816 12.5792 31.7984C12.8011 31.6875 12.912 31.5488 12.912 31.3824V19.984C12.912 19.9285 12.9536 19.7899 13.0368 19.568C13.1477 19.3184 13.2309 19.1659 13.2864 19.1104C13.4251 18.9163 13.5776 18.7915 13.744 18.736C13.9381 18.6528 14.1184 18.5973 14.2848 18.5696C14.4789 18.5141 14.6592 18.4587 14.8256 18.4032C15.0197 18.3477 15.1861 18.2507 15.3248 18.112C15.5467 17.8901 15.6853 17.6405 15.7408 17.3632C15.7963 17.0859 15.8656 16.8363 15.9488 16.6144C16.032 16.3648 16.1707 16.1568 16.3648 15.9904C16.5589 15.824 16.9195 15.7408 17.4464 15.7408C17.7792 15.7408 18.1536 15.8656 18.5696 16.1152C18.9856 16.3371 19.1936 16.6421 19.1936 17.0304V31.1744C19.1936 31.3963 19.3045 31.5765 19.5264 31.7152C19.776 31.8539 19.9979 31.9232 20.192 31.9232C20.3307 31.9232 20.4971 31.8816 20.6912 31.7984C20.9131 31.6875 21.024 31.5488 21.024 31.3824V17.28C21.024 16.8085 21.232 16.4341 21.648 16.1568C22.0917 15.8795 22.5077 15.7408 22.896 15.7408C23.2565 15.7408 23.6171 15.8656 23.9776 16.1152C24.3659 16.3371 24.56 16.6421 24.56 17.0304V34.336C24.56 34.6965 24.4213 34.96 24.144 35.1264C23.8667 35.2928 23.5616 35.4315 23.2288 35.5424C22.896 35.6256 22.5909 35.7227 22.3136 35.8336C22.0363 35.9445 21.8976 36.1248 21.8976 36.3744V39.744C21.8976 40.0768 21.6896 40.368 21.2736 40.6176C20.8576 40.8395 20.4971 40.9504 20.192 40.9504C19.8592 40.9504 19.5264 40.8811 19.1936 40.7424C18.8608 40.6037 18.6251 40.3403 18.4864 39.952C18.4587 39.8965 18.4171 39.744 18.3616 39.4944C18.3339 39.2171 18.3061 39.0507 18.2784 38.9952C18.1952 38.7179 18.0427 38.5376 17.8208 38.4544C17.5989 38.3435 17.3493 38.2603 17.072 38.2048C16.8224 38.1493 16.5728 38.0661 16.3232 37.9552C16.0736 37.8165 15.8933 37.5808 15.7824 37.248C15.7269 37.1093 15.6853 36.9568 15.6576 36.7904C15.6299 36.5963 15.5744 36.416 15.4912 36.2496C15.4357 36.0832 15.3525 35.9445 15.2416 35.8336C15.1307 35.6949 14.9643 35.6256 14.7424 35.6256C14.576 35.6256 14.368 35.7088 14.1184 35.8752C13.8688 36.0139 13.744 36.1803 13.744 36.3744V39.744C13.744 40.0768 13.536 40.368 13.12 40.6176C12.704 40.8395 12.3435 40.9504 12.0384 40.9504C11.4837 40.9504 11.0955 40.8672 10.8736 40.7008C10.6795 40.5067 10.5408 40.2848 10.4576 40.0352C10.3744 39.7856 10.2912 39.5221 10.208 39.2448C10.1525 38.9397 9.98614 38.6763 9.7088 38.4544C9.51467 38.288 9.32054 38.2048 9.1264 38.2048C8.96 38.1771 8.7936 38.1493 8.6272 38.1216C8.4608 38.0939 8.2944 38.0245 8.128 37.9136C7.9616 37.8027 7.7952 37.5808 7.6288 37.248C7.60107 37.1925 7.55947 37.1232 7.504 37.04C7.47627 36.9291 7.4624 36.8597 7.4624 36.832V33.5456C7.4624 33.3237 7.32374 33.1712 7.0464 33.088C6.76907 32.9771 6.464 32.8661 6.1312 32.7552C5.7984 32.6443 5.49334 32.4917 5.216 32.2976C4.93867 32.1035 4.8 31.7984 4.8 31.3824V19.984C4.8 19.568 4.8832 19.2768 5.0496 19.1104C5.24374 18.9163 5.4656 18.7776 5.7152 18.6944C5.99254 18.6112 6.256 18.5419 6.5056 18.4864C6.78294 18.4032 7.0048 18.2784 7.1712 18.112C7.39307 17.9179 7.53174 17.6821 7.5872 17.4048C7.64267 17.1275 7.712 16.864 7.7952 16.6144C7.8784 16.3648 8.01707 16.1568 8.2112 15.9904C8.40534 15.824 8.752 15.7408 9.2512 15.7408Z" stroke="white" stroke-width="7" mask="url(#path-1-outside-1_183_15)"/>
<path d="M25.4375 22.9792C25.4375 22.6187 25.5623 22.2304 25.8119 21.8144C26.0615 21.3984 26.4082 21.1904 26.8519 21.1904H30.2215C30.4156 21.1904 30.5543 21.0517 30.6375 20.7744C30.7207 20.4971 30.8178 20.192 30.9287 19.8592C31.0674 19.5264 31.2476 19.2213 31.4695 18.944C31.7191 18.6667 32.0935 18.528 32.5927 18.528C32.9255 18.528 33.286 18.6528 33.6743 18.9024C34.0903 19.1243 34.2983 19.4432 34.2983 19.8592V37.04C34.2983 37.2064 34.1874 37.4005 33.9655 37.6224C33.7436 37.8443 33.605 37.9829 33.5495 38.0384C33.3276 38.2048 33.078 38.3019 32.8007 38.3296C32.5511 38.3573 32.3015 38.4405 32.0519 38.5792C31.83 38.6901 31.6914 38.8843 31.6359 39.1616C31.6082 39.4112 31.5527 39.6747 31.4695 39.952C31.3863 40.2016 31.2476 40.4373 31.0535 40.6592C30.8594 40.8533 30.4988 40.9504 29.9719 40.9504C29.5836 40.9504 29.1676 40.8395 28.7239 40.6176C28.3079 40.368 28.0999 40.0075 28.0999 39.536V25.4752C28.0999 25.2256 27.9612 25.0592 27.6839 24.976C27.4066 24.8928 27.1015 24.7957 26.7687 24.6848C26.4359 24.5461 26.1308 24.3659 25.8535 24.144C25.5762 23.8944 25.4375 23.5061 25.4375 22.9792ZM25.4375 12.1632C25.4375 11.664 25.5207 11.3173 25.6871 11.1232C25.8812 10.9013 26.1031 10.7488 26.3527 10.6656C26.6023 10.5824 26.8519 10.5131 27.1015 10.4576C27.3788 10.4021 27.6146 10.2773 27.8087 10.0832C28.0028 9.88906 28.1276 9.66719 28.1831 9.41759C28.2386 9.14026 28.3079 8.87679 28.3911 8.62719C28.4743 8.37759 28.613 8.16959 28.8071 8.00319C29.029 7.80905 29.3895 7.71199 29.8887 7.71199C30.3879 7.71199 30.7346 7.79519 30.9287 7.96159C31.1506 8.10026 31.3031 8.28052 31.3863 8.50239C31.4695 8.72425 31.525 8.95999 31.5527 9.20959C31.5804 9.45919 31.6775 9.68106 31.8439 9.87519C32.0658 10.1525 32.3154 10.3328 32.5927 10.416C32.8978 10.4992 33.1751 10.5824 33.4247 10.6656C33.6743 10.7488 33.8823 10.9013 34.0487 11.1232C34.2428 11.3173 34.3399 11.6917 34.3399 12.2464C34.3399 12.6624 34.2706 12.9813 34.1319 13.2032C33.9932 13.3973 33.7991 13.5499 33.5495 13.6608C33.3276 13.744 33.078 13.8272 32.8007 13.9104C32.5511 13.9659 32.3015 14.0629 32.0519 14.2016C31.83 14.3403 31.6914 14.5483 31.6359 14.8256C31.6082 15.0752 31.5527 15.3387 31.4695 15.616C31.3863 15.8656 31.2476 16.1013 31.0535 16.3232C30.8594 16.5173 30.4988 16.6144 29.9719 16.6144C29.4172 16.6144 29.029 16.5312 28.8071 16.3648C28.613 16.1707 28.4743 15.9488 28.3911 15.6992C28.3079 15.4496 28.2247 15.1861 28.1415 14.9088C28.0583 14.6037 27.878 14.3403 27.6007 14.1184C27.4066 13.952 27.1847 13.8549 26.9351 13.8272C26.6855 13.7995 26.4498 13.744 26.2279 13.6608C26.006 13.5776 25.8119 13.4389 25.6455 13.2448C25.5068 13.0229 25.4375 12.6624 25.4375 12.1632Z" stroke="white" stroke-width="7" mask="url(#path-1-outside-1_183_15)"/>
<path d="M35.1875 36.4992C35.1875 36 35.2707 35.6533 35.4371 35.4592C35.6312 35.2373 35.8531 35.0848 36.1027 35.0016C36.3523 34.9184 36.6019 34.8491 36.8515 34.7936C37.1288 34.7381 37.3646 34.6133 37.5587 34.4192C37.7528 34.2251 37.8776 34.0032 37.9331 33.7536C37.9886 33.4763 38.0579 33.2128 38.1411 32.9632C38.2243 32.7136 38.363 32.5056 38.5571 32.3392C38.779 32.1451 39.1395 32.048 39.6387 32.048C40.1656 32.048 40.54 32.1867 40.7619 32.464C41.0115 32.7413 41.1918 33.0464 41.3027 33.3792C41.4136 33.6843 41.5107 33.9755 41.5939 34.2528C41.7048 34.5301 41.8851 34.6688 42.1347 34.6688H48.1251C48.2915 34.6688 48.4163 34.5717 48.4995 34.3776C48.6104 34.1557 48.6659 33.9755 48.6659 33.8368C48.6659 33.5317 48.5827 33.3099 48.4163 33.1712C48.2499 33.0325 48.0419 32.9216 47.7923 32.8384C47.5427 32.7552 47.2792 32.672 47.0019 32.5888C46.7523 32.5056 46.5443 32.3531 46.3779 32.1312C46.2947 32.048 46.2254 31.9093 46.1699 31.7152C46.1144 31.4933 46.0451 31.2715 45.9619 31.0496C45.9064 30.8 45.8232 30.592 45.7123 30.4256C45.6014 30.2315 45.4627 30.1344 45.2963 30.1344H41.9267C41.5939 30.1344 41.3443 30.0373 41.1779 29.8432C41.0115 29.6213 40.8728 29.3717 40.7619 29.0944C40.6787 28.8171 40.5816 28.5397 40.4707 28.2624C40.3875 27.9573 40.2627 27.7355 40.0963 27.5968C39.9299 27.4581 39.7219 27.3749 39.4723 27.3472C39.2227 27.2917 38.9731 27.2224 38.7235 27.1392C38.5016 27.056 38.3075 26.9451 38.1411 26.8064C37.9747 26.64 37.8915 26.3627 37.8915 25.9744V22.6048C37.8915 22.2165 37.9886 21.9392 38.1827 21.7728C38.3768 21.6064 38.5987 21.4816 38.8483 21.3984C39.1256 21.3152 39.3891 21.2459 39.6387 21.1904C39.916 21.1349 40.1379 21.024 40.3043 20.8576C40.443 20.7189 40.5262 20.5525 40.5539 20.3584C40.6094 20.1643 40.651 19.9701 40.6787 19.776C40.7342 19.5819 40.7896 19.4016 40.8451 19.2352C40.9283 19.0688 41.067 18.9163 41.2611 18.7776C41.3443 18.7221 41.483 18.6528 41.6771 18.5696C41.8712 18.4587 41.996 18.4032 42.0515 18.4032H45.4211C45.6152 18.4032 45.7539 18.2645 45.8371 17.9872C45.9203 17.7099 46.0035 17.4048 46.0867 17.072C46.1976 16.7392 46.3502 16.4341 46.5443 16.1568C46.7384 15.8795 47.0435 15.7408 47.4595 15.7408H50.8291C51.1896 15.7408 51.4531 15.824 51.6195 15.9904C51.8136 16.1568 51.9384 16.3509 51.9939 16.5728C52.0771 16.7947 52.1326 17.0304 52.1603 17.28C52.2158 17.5296 52.3128 17.7376 52.4515 17.904C52.6734 18.1813 52.923 18.3616 53.2003 18.4448C53.5054 18.528 53.7827 18.6112 54.0323 18.6944C54.3096 18.7776 54.5315 18.9301 54.6979 19.152C54.892 19.3461 54.9891 19.7205 54.9891 20.2752C54.9891 20.6912 54.9059 21.0101 54.7395 21.232C54.6008 21.4261 54.4206 21.5787 54.1987 21.6896C53.9768 21.7728 53.7272 21.856 53.4499 21.9392C53.2003 21.9947 52.9507 22.1056 52.7011 22.272C52.4792 22.3829 52.3406 22.5771 52.2851 22.8544C52.2574 23.104 52.2019 23.3675 52.1187 23.6448C52.0355 23.8944 51.883 24.1301 51.6611 24.352C51.467 24.5461 51.1064 24.6432 50.5795 24.6432C49.9971 24.6432 49.5811 24.5184 49.3315 24.2688C49.1096 23.9915 48.9432 23.6864 48.8323 23.3536C48.7214 23.0208 48.6104 22.7296 48.4995 22.48C48.4163 22.2027 48.2499 22.064 48.0003 22.064H44.9635C44.7416 22.064 44.5614 22.1749 44.4227 22.3968C44.284 22.5909 44.2147 22.7851 44.2147 22.9792C44.2147 23.2011 44.2702 23.3675 44.3811 23.4784C44.5198 23.5893 44.6723 23.6725 44.8387 23.728C45.0051 23.7835 45.1715 23.8389 45.3379 23.8944C45.532 23.9221 45.6984 23.9637 45.8371 24.0192C46.1144 24.1024 46.3224 24.2827 46.4611 24.56C46.5998 24.8373 46.7246 25.1285 46.8355 25.4336C46.9464 25.7109 47.0435 25.9744 47.1267 26.224C47.2376 26.4459 47.3902 26.5568 47.5843 26.5568H50.8291C50.94 26.5568 51.0787 26.6123 51.2451 26.7232C51.4115 26.8064 51.5224 26.8757 51.5779 26.9312C51.772 27.0976 51.9107 27.264 51.9939 27.4304C52.0771 27.5968 52.1187 27.7493 52.1187 27.888C52.1464 28.0267 52.1742 28.1653 52.2019 28.304C52.2296 28.4427 52.3128 28.5952 52.4515 28.7616C52.6179 28.9557 52.8398 29.1083 53.1171 29.2192C53.3944 29.3024 53.6579 29.3995 53.9075 29.5104C54.1848 29.5936 54.4206 29.7184 54.6147 29.8848C54.8366 30.0512 54.9475 30.3008 54.9475 30.6336V34.336C54.9475 34.4747 54.8366 34.6549 54.6147 34.8768C54.3928 35.0987 54.2542 35.2373 54.1987 35.2928C54.0878 35.376 53.9491 35.4453 53.7827 35.5008C53.644 35.5285 53.4915 35.5563 53.3251 35.584C53.1864 35.584 53.0478 35.6117 52.9091 35.6672C52.7704 35.7227 52.6595 35.8197 52.5763 35.9584C52.4931 36.0971 52.4099 36.3051 52.3267 36.5824C52.2435 36.832 52.1464 37.0816 52.0355 37.3312C51.9523 37.5808 51.8275 37.8027 51.6611 37.9968C51.4947 38.1909 51.2867 38.288 51.0371 38.288H47.6675C47.4179 38.288 47.2376 38.4267 47.1267 38.704C47.0158 38.9813 46.9048 39.2864 46.7939 39.6192C46.683 39.952 46.5443 40.2571 46.3779 40.5344C46.2392 40.8117 45.9896 40.9504 45.6291 40.9504H39.2227C38.8899 40.9504 38.6403 40.8533 38.4739 40.6592C38.3075 40.4373 38.1688 40.2016 38.0579 39.952C37.9747 39.6747 37.8776 39.3973 37.7667 39.12C37.6835 38.8427 37.5448 38.6208 37.3507 38.4544C37.1566 38.288 36.9347 38.1909 36.6851 38.1632C36.4355 38.1355 36.1998 38.08 35.9779 37.9968C35.756 37.9136 35.5619 37.7749 35.3955 37.5808C35.2568 37.3589 35.1875 36.9984 35.1875 36.4992Z" stroke="white" stroke-width="7" mask="url(#path-1-outside-1_183_15)"/>
<path d="M66.6826 17.4048C66.6826 17.0443 66.8074 16.6699 67.057 16.2816C67.3343 15.8933 67.681 15.6992 68.097 15.6992H71.4666C71.8549 15.6992 72.1322 15.7963 72.2986 15.9904C72.465 16.1845 72.5898 16.4203 72.673 16.6976C72.7839 16.9749 72.881 17.2523 72.9642 17.5296C73.0474 17.8069 73.1999 18.0288 73.4218 18.1952C73.5605 18.3061 73.7546 18.3893 74.0042 18.4448C74.2538 18.5003 74.4895 18.5696 74.7114 18.6528C74.961 18.736 75.169 18.8608 75.3354 19.0272C75.5018 19.1659 75.585 19.3877 75.585 19.6928V36.9984C75.585 37.3589 75.4463 37.6224 75.169 37.7888C74.8917 37.9552 74.5866 38.0939 74.2538 38.2048C73.921 38.288 73.6159 38.3851 73.3386 38.496C73.0613 38.6069 72.9226 38.7872 72.9226 39.0368V42.4064C72.9226 42.7392 72.7146 43.0165 72.2986 43.2384C71.8826 43.488 71.5221 43.6128 71.217 43.6128C70.8287 43.6128 70.4127 43.488 69.969 43.2384C69.553 43.0165 69.345 42.6699 69.345 42.1984V19.9424C69.345 19.6928 69.2063 19.5264 68.929 19.4432C68.6517 19.36 68.3466 19.2629 68.0138 19.152C67.681 19.0133 67.3759 18.8192 67.0986 18.5696C66.8213 18.32 66.6826 17.9317 66.6826 17.4048ZM55.825 9.29279C55.825 8.90452 55.9498 8.51626 56.1994 8.12799C56.449 7.71199 56.7957 7.50399 57.2394 7.50399H60.609C60.8031 7.50399 60.9418 7.36532 61.025 7.08799C61.1082 6.81066 61.2053 6.50559 61.3162 6.17279C61.4549 5.81226 61.6351 5.49332 61.857 5.21599C62.1066 4.93865 62.481 4.79999 62.9802 4.79999C63.313 4.79999 63.6874 4.92479 64.1034 5.17439C64.5471 5.39626 64.769 5.71519 64.769 6.13119V17.6544C64.769 17.904 64.9077 18.0704 65.185 18.1536C65.4623 18.2368 65.7674 18.3339 66.1002 18.4448C66.4607 18.5557 66.7797 18.736 67.057 18.9856C67.3343 19.2352 67.473 19.6512 67.473 20.2336C67.473 20.7328 67.3343 21.0933 67.057 21.3152C66.7797 21.5371 66.4607 21.7173 66.1002 21.856C65.7674 21.9669 65.4623 22.0779 65.185 22.1888C64.9077 22.272 64.769 22.4523 64.769 22.7296V36.9984C64.769 36.9984 64.7413 37.0539 64.6858 37.1648C64.6303 37.2757 64.5749 37.3589 64.5194 37.4144C64.1866 37.8027 63.8538 38.0245 63.521 38.08C63.2159 38.1355 62.8554 38.2741 62.4394 38.496C62.2453 38.6347 62.1205 38.8427 62.065 39.12C62.0373 39.3696 61.9818 39.6331 61.8986 39.9104C61.8154 40.16 61.6629 40.3957 61.441 40.6176C61.2469 40.8117 60.8863 40.9088 60.3594 40.9088C59.9711 40.9088 59.5551 40.7979 59.1114 40.576C58.6954 40.3264 58.4874 39.9659 58.4874 39.4944V11.7888C58.4874 11.5392 58.3487 11.3728 58.0714 11.2896C57.7941 11.2064 57.489 11.1093 57.1562 10.9984C56.8234 10.8597 56.5183 10.6795 56.241 10.4576C55.9637 10.208 55.825 9.81972 55.825 9.29279Z" stroke="white" stroke-width="7" mask="url(#path-1-outside-1_183_15)"/>
</svg>
